<svg xmlns="http://www.w3.org/2000/svg" width="444.0279" height="405.2114" viewBox="0 0 444.0279 405.2114"><g id="katman_2" data-name="katman 2">
    <g id="katman_1-2" data-name="katman 1">
      <g>
        <path d="M80.7453,126.4665c-1.7786.7175-3.043,1.229-4.3085,1.738-12.2331,4.9207-24.6635,3.9666-37.101,1.0815A92.1029,92.1029,0,0,1,7.9185,114.9739a22.931,22.931,0,0,1-5.4991-5.1822c-3.5251-4.7359-3.3214-9.1,1.4262-12.63,6.2738-4.6649,12.285-9.6606,18.5886-14.2836C30.0864,77.2658,38.705,73.77,47.6015,70.7548c4.6756-1.5846,9.3462-1.3926,14.0934-.76,9.8226,1.3085,19.5961,2.809,28.7027,7.0388a3.1865,3.1865,0,0,0,.7967.1085c.1731-1.5426-.5671-2.837-.9626-4.1866-3.0129-10.2829-5.0244-20.7616-4.781-31.4877A72.1982,72.1982,0,0,1,95.5217,6.4719a13.217,13.217,0,0,1,6.09-5.7561,6.22,6.22,0,0,1,7.3881,1.1614c4.3749,4.0112,7.0762,9.0677,9.1819,14.4259a40.774,40.774,0,0,0,17.0888,20.14c2.1489,1.3331,4.416,2.4789,6.5372,3.8522a6.2619,6.2619,0,0,0,6.4891.3c6.5131-2.8849,12.9121-6.0231,19.7011-8.29,9.4579-3.1579,19.27-4.2966,29.0655-5.6317a273.2341,273.2341,0,0,1,48.193-2.4727c16.4931.6754,32.6546,2.95,48.2961,8.4115a54.4631,54.4631,0,0,0,6.6712,1.7427c6.7079,1.422,11.7055-2.0235,16.3145-6.1048a36.4144,36.4144,0,0,0,9.09-12.3219c1.2368-2.7309,2.9842-5.1929,4.2733-7.8762,3.4831-7.2494,9.3618-6.4917,14.2518-2.9779,4.4656,3.2087,7.09,7.86,8.7633,12.9455a80.6354,80.6354,0,0,1,2.6176,41.3057,36.61,36.61,0,0,1-2.6758,7.5789c-.355.8106-.941,1.5933-.58,2.69,1.52.48,2.8145-.3456,4.1118-.86,6.5509-2.5971,12.9544-5.5966,19.9564-6.9036,20.8612-3.894,40.3914-.1688,58.7559,10.229a23.7992,23.7992,0,0,1,5.7874,4.5125c3.7307,4.0293,4.1512,8.87,1.1754,13.4791a38.2379,38.2379,0,0,1-7.0473,7.8585c-7.5974,6.6835-15.2942,13.1827-24.248,18.1254a37.9611,37.9611,0,0,1-21.0238,4.6021c-6.4327-.3562-12.8576-.8524-19.2871-1.27-.8288-.0538-1.6641-.0074-2.6986-.0074,1.0477,2.9517,2.0993,5.7875,3.0636,8.6526,5.0358,14.9636,9.9831,29.968,13.7347,45.306,2.9311,11.9833,5.35,24.0969,7.7859,36.195,3.2839,16.3113,6.23,32.6905,8.56,49.1662,1.2978,9.1747,2.9355,18.402,1.6439,27.7033-1.2129,8.7334-1.4432,17.542-2.7875,26.2854-2.0718,13.4748-8.7676,24.5428-16.3035,35.3525-2.28,3.2706-4.4818,6.5991-6.8516,9.8033-6.8429,9.2524-16.0561,15.675-25.757,21.5475-12.9438,7.8356-27.0582,12.4612-41.6718,15.9862-14.0966,3.4-28.1653,6.854-42.6669,7.9872-6.4976.5078-13.02.702-19.5308,1.0391-10.1911.5277-20.3943,1.1143-30.5918.6685-21.4071-.9358-42.6677-3.1847-63.5789-8.0791-18.9422-4.4336-36.2751-12.6352-52.7508-22.77-15.3233-9.4262-25.3079-23.2863-32.7418-39.36-10.2139-22.0838-13.6845-45.38-12.9491-69.4536a457.81,457.81,0,0,1,4.224-51.11c4.1419-28.8465,11.7232-56.8721,21.0592-84.4424C79.9672,128.9037,80.2609,127.9609,80.7453,126.4665Z"></path>
        <g>
          <path d="M387.5751,283.9092a79.8306,79.8306,0,0,0-10.0841-13.11c-9.8321-10.4071-20.6522-19.5442-34.2737-24.5865a233.9023,233.9023,0,0,0-40.1864-10.6508c-21.012-3.7524-42.2288-4.5194-72.3378-3.7905-18.7235.5635-46.2226,1.8507-73.3077,7.5121-16.614,3.4726-32.6089,8.6516-47.2235,17.4913-14.4987,8.7695-26.149,20.17-33.21,35.8954-5.601,12.4732-6.5153,25.2994-2.2938,38.1335a69.57,69.57,0,0,0,18.7368,29.423c13.57,12.6341,30.2326,19.7945,47.7141,24.8365,13.3135,3.84,27.0053,6.3282,40.6987,8.6284a320.0181,320.0181,0,0,0,42.9843,4.2814c13.8446.4366,27.5569-.9534,41.2674-2.7621,9.3434-1.2327,18.7-2.292,27.9708-4.0426a202.6365,202.6365,0,0,0,40.3048-11.8891c19.1566-7.9692,34.8457-20.38,45.5418-38.5461,3.4659-5.8865,7.013-11.7368,9.32-18.1877,3.0571-8.5478,3.1232-17.444,2.5794-26.3727A26.3177,26.3177,0,0,0,387.5751,283.9092Zm-89.0535,15.4974a25.598,25.598,0,0,1,3.084-11.6513c3.7045-7.2631,13.3394-7.724,19.4413-4.89,5.0014,2.3233,7.4684,7.6106,6.743,14.3082a9.25,9.25,0,0,1-1.1455,4.1715,1.7179,1.7179,0,0,1-1.876,1.0052,1.5367,1.5367,0,0,1-1.1615-1.5381c-.1442-1.2124-.1666-2.44-.2287-3.6613-.1427-2.8023-.6519-5.5-2.5312-7.711-.6862-.8076-1.621-1.733-2.7335-1.1837-1.1718.5786-.558,1.781-.2831,2.6876a16.7331,16.7331,0,0,1-2.0335,14.5222c-2.5531,3.9683-6.3524,5.4791-10.4382,4.3373-4.1593-1.1623-6.5638-4.3309-6.8336-9.0186C298.4988,300.327,298.5216,299.8662,298.5216,299.4066Zm-161.52-4.5418c.5606-4.4239,5.4093-8.4941,10.637-8.9755,10.2662-.9455,19.1245,9.56,16.4659,19.5276a9.04,9.04,0,0,1-9.5159,7.0195c-5.493-.153-8.76-2.7094-9.8423-7.5454a20.4529,20.4529,0,0,1,.2313-8.1985c.2513-1.409.74-2.8337-.0312-4.4839-2.5187.3723-3.8394,1.9941-5.0006,3.8348-.4747.7525-.8543,1.9251-1.9469,1.5828C136.7238,297.2268,136.8665,295.93,137.0014,294.8648Zm197.0762,50.902c-.99,1.0113-2.1564,2.2128-3.5375,1.0158-3.2455-2.8125-5.7756-1.2805-8.4809.8865-10.7856,8.6391-23.1764,14.3009-35.9856,19.1492a150.1325,150.1325,0,0,1-30.5195,8.4212c-42.6982,6.5024-82.5488-.8265-118.9917-24.58-2.371-1.5454-4.5726-3.3544-6.8219-5.0814-1.1344-.8711-2.1988-1.2765-3.5224-.3161-3.6088,2.6185-3.7239,2.5845-7.0273-.84a27.5974,27.5974,0,0,1,4.2752-5.0562,69.2186,69.2186,0,0,0,6.9562-8.2636c.5278-.7827.9918-2.0372,2.2447-1.37,1.3767.7329,2.9974,1.4484,2.8383,3.4875a3.1293,3.1293,0,0,1-.3211,1.0945c-2.3313,4.7819-.9629,5.9695,2.9682,8.6721a143.1179,143.1179,0,0,0,32.9183,16.725,153.0162,153.0162,0,0,0,32.914,8.3274c10.9793,1.3534,22.027,1.33,33.0642,1.0214,25.2226-.7058,48.5251-8.0618,70.3205-20.5325a96.1277,96.1277,0,0,0,11.64-7.3817c1.9976-1.5594,2.5088-3.17,1.3636-5.5557-1.5534-3.2358-.953-4.5919,2.5484-6.6489,2.9677,5.227,7.5772,9.129,11.29,13.7883A2.0182,2.0182,0,0,1,334.0776,345.7668Z" style="fill: #ff97ba"></path>
          <path d="M85.5972,113.1732c1.0255-2.3792,1.9939-4.7831,2.9779-7.1524a7.5394,7.5394,0,0,0-2.9067-1.98,58.3252,58.3252,0,0,0-14.6942-4.508c-9.79-1.7979-19.5929-3.027-29.2632.7546a64.2119,64.2119,0,0,1-6.1082,2.0307c-2.2208.62-4.5008,1.1181-6.7674.1769a3.77,3.77,0,0,1-2.4733-2.8382c-.1862-1.41,1.2829-1.7817,2.2824-2.19,9.8551-4.0262,20.0583-6.3177,30.748-5.2928,9.5227.913,18.7741,2.9181,27.131,7.9715,2.402,1.4525,3.714.9678,5.0914-1.4716A44.6028,44.6028,0,0,0,94.9228,91.6a3.8552,3.8552,0,0,0-1.3958-4.8451c-6.1376-4.7823-13.2217-7.4079-20.69-9.01-5.9882-1.2846-12.1029-2.7-18.2251-1.3237a78.2088,78.2088,0,0,0-19.3167,7.2873c-9.4622,4.9954-16.82,12.7761-25.1309,19.2968a6.6371,6.6371,0,0,0-.9316,1.016c-2.1942,2.6365-2.2012,4.05-.0527,6.6674a22.12,22.12,0,0,0,5.0206,4.3578c6.5553,4.3269,13.8739,6.8455,21.4052,8.7356,14.4775,3.6333,28.7008,3.5029,42.4223-3.2478C81.3906,118.8805,84.0927,116.6636,85.5972,113.1732Z" style="fill: #fff"></path>
          <path d="M142.3025,177.4514c-7.7134-.23-12.9254,5.0469-13.1061,13.1277-.1452,6.4914,4.3642,10.7678,11.53,10.9347a12.9709,12.9709,0,0,0,12.8983-12.5591C153.2838,181.8605,149.4415,177.664,142.3025,177.4514Z" style="fill: #fff"></path>
          <path d="M128.5472,207.34c-3.5445.2522-4.818,1.9219-5.1631,6.77q-.0245.3429-.0486.6858c-.3226,6.4135,3.0932,9.0254,9.0355,6.9091,3.6962-1.3164,5.5988-4.9146,4.7736-9.0279C136.4936,209.4319,132.6533,207.0481,128.5472,207.34Z" style="fill: #fff"></path>
          <path d="M99.6788,82.0764c6.3185-6.5456,11.5166-13.8962,18.0331-20.0577,6.5014-6.1473,13.9187-11.0423,21.7848-15.5633a16.6029,16.6029,0,0,0-5.2271-3.5948c-5.386-2.94-10.1506-6.51-13.5378-11.8028-2.99-4.6726-5.1568-9.75-7.7291-14.6257A29.5823,29.5823,0,0,0,109.0316,9.99c-2.3884-2.6117-4.364-2.6092-6.79-.0838a14.7508,14.7508,0,0,0-2.6079,3.7728A78.5516,78.5516,0,0,0,91.79,39.9854C90.43,52.9127,93.1428,65.308,97.2446,77.4629A12.0817,12.0817,0,0,0,99.6788,82.0764Z" style="fill: #805400"></path>
          <path d="M345.2724,70.7709c.58-1.2831.9267-1.96,1.1958-2.6657a23.7184,23.7184,0,0,0,1.2087-3.4716,87.3346,87.3346,0,0,0-.0882-38.765c-1.2247-5.116-3.2053-9.97-7.7261-13.2228-2.9621-2.1317-4.68-1.6806-6.5036,1.4791-5.6021,9.7049-10.8607,19.7-21.9121,25.7914C324.9118,48.2732,336.2673,58.0009,345.2724,70.7709Z" style="fill: #805400"></path>
          <path d="M431.7422,80.044a54.4181,54.4181,0,0,0-8.72-4.64c-7.925-3.5494-15.9987-6.8608-24.5757-8.2693-12.5729-2.0646-24.7083.5049-36.526,4.7858a26.6877,26.6877,0,0,0-9.218,5.9426,2.0294,2.0294,0,0,0-.717,2.4c1.4482,4.2982,3.7617,8.1686,5.9228,12.5971,3.3855-2.3087,6.4944-4.28,9.4426-6.4669,8.95-6.64,18.7584-10.6476,30.0974-10.2087,7.3741.2854,14.7079.86,21.7464,3.2982,1.3428.4652,3.0344,1.0125,3.0242,2.7445-.01,1.723-1.6908,2.4066-2.956,3.2455-.9791.6492-2.0091.1823-2.8815-.1275-8.8-3.1242-17.8834-3.0307-27.0413-2.7445-10.8433.3388-19.4817,5.2633-27.2363,12.3064a4.88,4.88,0,0,0-1.5362,4.7559c1.1614,7.9706,4.4435,11.8139,12.3392,13.4139a91.0052,91.0052,0,0,0,29.0733,1.3347c3.106-.3737,6.2626-.9,8.9512-2.6958A120.1165,120.1165,0,0,0,431.1749,94.42a23.67,23.67,0,0,0,2.73-3.4034C436.894,86.4018,436.2418,83.14,431.7422,80.044Z" style="fill: #fff"></path>
          <path d="M390.1351,234.91a673.2547,673.2547,0,0,0-23.7342-96.8583c-.479-1.4758-1.1387-2.4972-2.6938-2.67a29.0952,29.0952,0,0,1-5.9146-1.772,153.9524,153.9524,0,0,0-34.6082-7.1519c-12.7468-1.1693-23.1409-6.7807-31.8488-16.116-10.2564-10.9952-17.094-23.8211-21.8283-37.9563-4.2369-12.65-4.9636-25.2138.4222-38.1764-3.7933-.5994-7.2491-1.2429-10.7311-1.6784a205.8206,205.8206,0,0,0-41.5121-.995c-17.7924,1.3759-35.3643,3.9305-52.2145,10.1453a108.3219,108.3219,0,0,0-16.8741,7.8616c1.1.8078,1.9538,1.4131,2.7844,2.0491a65.546,65.546,0,0,1,10.0245,9.113c8.82,10.24,9.6874,20.7259,1.9485,31.7368a85.8238,85.8238,0,0,1-30.6578,26.562c-6.6477,3.5142-13.408,6.7536-18.6818,12.3895-3.988,4.2618-5.8647,8.904-4.8487,14.8382,2.2544,13.1673-2.436,23.5084-13.4828,30.8921-5.93,3.9638-11.7595,8.0451-17.3576,12.467a20.6718,20.6718,0,0,1-7.3115,3.7952,3.5885,3.5885,0,0,0-2.7808,3.196c-2.2253,10.9106-3.4353,21.9631-4.7289,33.0026a275.926,275.926,0,0,0,.2558,67.9423c.3341,2.5691.93,5.1041,1.4046,7.6549a25.2238,25.2238,0,0,0,1.6727-4.178c5.0127-13.4708,13.3248-24.7918,23.1061-35.1145,4.54-4.7918,9.2523-9.4486,15.3437-12.3133a65.21,65.21,0,0,0,7.7172-4.0909A85.8782,85.8782,0,0,1,135.8909,239.45c22.0281-6.4059,44.595-9.8541,67.418-11.6452,15.4613-1.2133,30.9739-1.05,46.4712-1.0741,11.2742-.0176,22.605-.6586,33.7975.8864a377.9336,377.9336,0,0,1,49.76,10.191c12.0023,3.3418,23.3278,8.0406,33.0464,16.0483,10.5561,8.6977,20.9426,17.5619,27.7836,29.736.131.2331.2671.5908.7352.3348a7.6076,7.6076,0,0,0,.2375-2.8841C395.3585,265.4619,392.6912,250.1869,390.1351,234.91Zm-271.7385-81.829a28.2544,28.2544,0,0,1,8.0411-3.8911,4.53,4.53,0,0,1,3.1354.1286c1.3095.52,2.3762,1.123,2.1651,2.7871-.2145,1.6923-1.4037,1.9947-2.821,2.0554a11.6371,11.6371,0,0,0-5.452,1.6383,8.0257,8.0257,0,0,1-3.7925,1.0543c-1.07-.1364-2.376-.0643-2.7831-1.4549C116.53,154.17,117.6113,153.6327,118.3966,153.0814Zm44.1408,60.154c-7.6662,14.4856-27.5906,22.8267-43.6386,8.9306-6.365-5.5114-9.7743-11.8574-8.6636-19.2126a56.8846,56.8846,0,0,1,.5945-10.7609c1.1227-7.1055,5.7185-11.8955,11.2168-15.9017a76.9481,76.9481,0,0,1,8.48-5.0618,9.2766,9.2766,0,0,1,3.3043-.9079c10.7011-1.2775,19.5689,2.6045,27.0365,9.9836,2.5282,2.4982,3.3089,6.0418,4.0858,9.3854C166.8339,197.7833,166.4483,205.8453,162.5374,213.2354Zm145.626-71.4385a10.576,10.576,0,0,1,5.1046-1.1477,17.4026,17.4026,0,0,1,7.3278,1.66c1.9719.9811,1.9849,2.396.12,3.59a4.3593,4.3593,0,0,1-3.9595.6026,21.6041,21.6041,0,0,0-7.8983-1.0872c-.9908-.0127-2.1882-.0147-2.4492-1.227C306.1357,142.9168,307.1849,142.26,308.1634,141.7969Zm-5.465,79.8211c-8.7443-2.357-18.9829-13.6379-17.7131-25.0955-.1882-13.6851,6.5679-23.7876,18.796-28.8725,15.9557-6.6352,33.5092,1.051,37.4542,18.57C346.5017,209.6058,324.3894,227.4649,302.6984,221.618Z" style="fill: #fff"></path>
          <path d="M319.4044,171.5394c-7.3768-.0456-12.5142,4.7891-12.5184,11.7807-.0037,6.3144,5.5836,13.1821,11.0521,12.8118,7.3512-.4979,13.0251-4.7285,13.3422-13.3256C331.5,176.8443,325.8179,171.579,319.4044,171.5394Z" style="fill: #fff"></path>
          <path d="M304.22,197.251c-3.5707-.1174-7.39,4.2012-7.5035,8.4842-.1191,4.49,3.8605,8.3552,8.7763,8.5251,3.6514.1262,7.6728-3.7026,7.7541-7.3827C313.3368,202.7879,308.27,197.3841,304.22,197.251Z" style="fill: #fff"></path>
        </g>
      </g>
    </g>
  </g></svg>